<svg id="Capa_1" enable-background="new 0 0 512 512" height="512" viewBox="0 0 512 512" width="512" xmlns="http://www.w3.org/2000/svg"><g><path d="m165.949 204.849v15.861c0 4.142 3.358 7.5 7.5 7.5 4.143 0 7.5-3.358 7.5-7.5v-15.861c0-4.142-3.357-7.5-7.5-7.5-4.142 0-7.5 3.358-7.5 7.5z"/><path d="m338.536 197.349c-4.142 0-7.5 3.358-7.5 7.5v15.861c0 4.142 3.358 7.5 7.5 7.5s7.5-3.358 7.5-7.5v-15.861c0-4.142-3.358-7.5-7.5-7.5z"/><path d="m272.1 215.311c-4.066 4.666-9.937 7.342-16.108 7.342s-12.042-2.676-16.108-7.341c-2.721-3.123-7.458-3.448-10.582-.727-3.123 2.721-3.448 7.459-.727 10.582 6.916 7.936 16.908 12.487 27.417 12.487 10.508 0 20.5-4.551 27.417-12.486 2.721-3.123 2.396-7.86-.727-10.582s-7.86-2.397-10.582.725z"/><path d="m400.295 55.234c-39.762-35.618-91.01-55.234-144.302-55.234-42.309 0-83.332 12.271-118.636 35.485-3.461 2.276-4.421 6.926-2.146 10.387s6.927 4.423 10.387 2.146c32.85-21.601 71.024-33.018 110.395-33.018 49.593 0 97.286 18.256 134.293 51.407 32.377 29.002 54.379 67.33 63.054 109.314-7.02-3.327-15.037-5.215-22.91-5.381-4.674-12.633-14.682-23.253-27.946-28.447-24.929-9.76-50.769-32.884-64.905-53.445-3.065-4.522-9.85-4.368-12.667.396-19.696 33.369-57.048 51.353-95.167 57.337 12.435-25.578 1.518-54.753.955-56.216-2.012-5.229-8.936-6.519-12.663-2.225-24.08 27.729-61.204 41.548-97.223 47.052-19.336 2.955-34.81 17.065-39.588 35.557-7.55.201-15.476 2.007-22.582 5.374 8.74-42.309 31-80.868 63.788-109.957 3.098-2.749 3.381-7.489.633-10.588-2.749-3.098-7.489-3.382-10.588-.633-39.271 34.842-64.471 82.344-71.168 133.992-9.274 10.057-14.952 23.477-14.952 38.203 0 33.029 28.444 59.244 61.646 56.157 15.9 39.853 45.641 72.863 83.172 93.004-31.306 28.782-52.982 74.253-52.982 128.599 0 4.142 3.358 7.5 7.5 7.5h260.601c4.143 0 7.5-3.358 7.5-7.5 0-53.765-21.313-99.383-52.822-128.451 13.71-7.318 26.54-16.449 38.158-27.269 3.031-2.823 3.2-7.569.376-10.6-2.823-3.031-7.568-3.2-10.6-.376-34.331 31.975-78.804 46.69-122.484 44.158-103.302-5.965-177.687-106.049-150.617-208.071 3.381-12.735 14.092-22.257 27.276-24.272 35.095-5.365 70.618-18.13 96.61-42.093 1.87 11.804 1.894 29.738-10.881 42.512-4.666 4.667-1.462 12.859 5.44 12.802 11.133-.205 30.079-3.198 47.25-8.752 27.873-9.014 53.077-24.777 70.311-48.457 17.094 20.996 40.091 40.396 65.206 50.229 17.821 6.977 20.535 23.747 20.593 23.859 10.527 44.6 1.463 95.971-29.431 136.756-2.501 3.302-1.852 8.006 1.45 10.507 3.301 2.5 8.006 1.852 10.507-1.45 10.024-13.235 18.062-27.543 24.026-42.621 51.429 4.602 81.194-56.77 46.516-94.376-6.651-51.277-31.572-98.535-70.383-133.301zm-86.653 332.609v24.495h-50.149v-15.259c17.71-.721 34.673-4.016 50.149-9.236zm58.554 67.848h-43.553v-28.354h32.331c4.64 9.014 8.391 18.47 11.222 28.354zm-58.554 0h-50.149v-28.354h50.149zm-162.63-28.353h32.331v28.354h-43.553c2.831-9.885 6.582-19.341 11.222-28.354zm47.331 0h50.15v28.354h-50.15zm0-39.572c16.168 5.493 32.958 8.603 50.15 9.305v15.267h-50.15zm50.15 82.925v26.309h-50.15v-26.309zm15 0h50.149v26.309h-50.149zm-80.15-85.538v27.185h-23.503c7.382-11.057 15.444-20.123 23.503-27.185zm-47.078 85.538h47.078v26.309h-50.009c.344-9.041 1.338-17.809 2.931-26.309zm192.377 26.309v-26.309h47.078c1.593 8.5 2.587 17.268 2.931 26.309zm23.503-84.662h-23.503v-27.185c7.977 6.99 16.099 16.081 23.503 27.185zm-269.309-144.186c-37.75 0-55.569-46.182-28.33-71.655.624-.427 8.849-9.182 23.406-10.877-4.608 26.748-3.301 55.15 4.924 82.532zm346.428-.001c8.132-27.367 9.393-56.029 4.815-82.53 20.577 2.392 36.548 19.964 36.548 41.119.001 22.819-18.551 41.385-41.363 41.411z"/></g></svg>