<svg id="Capa_1" enable-background="new 0 0 512 512" height="512" viewBox="0 0 512 512" width="512" xmlns="http://www.w3.org/2000/svg"><g><path d="m172.427 197.92c-4.142 0-7.5 3.357-7.5 7.5v15.768c0 4.142 3.358 7.5 7.5 7.5s7.5-3.358 7.5-7.5v-15.768c0-4.142-3.358-7.5-7.5-7.5z"/><path d="m336.543 197.92c-4.142 0-7.5 3.357-7.5 7.5v15.768c0 4.142 3.358 7.5 7.5 7.5s7.5-3.358 7.5-7.5v-15.768c0-4.142-3.357-7.5-7.5-7.5z"/><path d="m281.046 215.065c-3.123-2.721-7.86-2.396-10.582.727-4.034 4.629-9.858 7.283-15.98 7.283s-11.946-2.654-15.979-7.283c-2.722-3.123-7.459-3.448-10.582-.727s-3.448 7.459-.727 10.582c6.883 7.898 16.83 12.428 27.288 12.428 10.459 0 20.405-4.53 27.289-12.428 2.722-3.123 2.396-7.861-.727-10.582z"/><path d="m474.461 347.196c-8.949-5.683-19.705-7.85-30.058-6.305-4.137-16.681-16.786-30.193-32.128-36.123 3.958-7.053 7.417-14.355 10.378-21.857 33.233 2.973 61.467-23.297 61.467-56.172 0-14.726-5.677-28.146-14.951-38.203-6.65-51.278-31.571-98.536-70.382-133.302-39.763-35.618-91.01-55.234-144.302-55.234-38.745 0-76.796 10.413-110.039 30.113-3.563 2.112-4.74 6.712-2.628 10.275s6.713 4.741 10.276 2.629c30.929-18.329 66.335-28.017 102.391-28.017 49.593 0 97.286 18.256 134.293 51.407 32.376 29.002 54.378 67.329 63.054 109.313-7.125-3.377-15.017-5.165-22.591-5.374-.765-2.879-1.699-6.12-2.607-8.957-4.256-13.293-16.431-22.225-30.295-22.225-97.469-.629-94.057 1.409-100.425-1.796-5.815-2.928-6.783-6.876-17.205-20.189-6.853-9.201-6.591-8.982-7.683-10.249-9.058-10.511-25.696-10.076-34.122 1.289l-17.92 24.17c-3.145 4.242-8.176 6.775-13.458 6.775h-92.892c-6.991 0-13.857 2.249-19.636 6.801-8.459 6.651-10.588 14.194-13.269 24.381-7.612.196-15.554 2.036-22.604 5.379 9.344-45.502 34.09-86.19 70.84-115.926 3.22-2.605 3.718-7.328 1.113-10.548-2.606-3.221-7.329-3.719-10.548-1.113-43.69 35.352-71.57 85.132-78.726 140.395-9.275 10.057-14.954 23.479-14.954 38.206 0 32.874 28.283 59.237 61.606 56.159 3.121 7.828 6.791 15.441 11.008 22.786-5.874 2.593-11.317 6.325-16.057 11.066-6.872 6.872-11.634 15.248-13.843 24.137-10.343-1.535-21.086.634-30.025 6.31-8.638 5.486-14.235 14.466-15.355 24.637-1.121 10.17 2.386 20.153 9.621 27.388l25.952 25.952c6.349 6.349 14.812 9.827 23.662 9.826 23.371 0 38.09-22.561 34.673-45.585 8.889-2.208 17.264-6.971 24.137-13.843 3.685-3.685 6.774-7.856 9.201-12.326 6.488 4.688 13.234 8.922 20.207 12.675-31.385 28.844-52.952 74.172-52.952 128.582 0 4.142 3.358 7.5 7.5 7.5h260.599c4.142 0 7.5-3.358 7.5-7.5 0-54.115-21.223-99.319-52.784-128.428 7.755-4.144 15.225-8.869 22.353-14.155 6.641 13.134 19.131 23.788 34.056 27.497-3.422 23.055 11.3 45.585 34.673 45.585 8.85 0 17.313-3.478 23.662-9.826l25.952-25.952c15.196-15.2 12.368-40.531-5.735-52.028zm-218.525 35.032c-111.658.984-193.87-108.708-159.266-216.415 2.24-6.975 8.661-11.648 15.964-11.648h92.893c10.01 0 19.545-4.8 25.507-12.842l17.919-24.17c2.788-3.759 8.353-3.657 11.062 0 16.826 21.605 18.272 27.382 27.537 32.732 4.779 2.761 10.26 4.279 15.89 4.279h92.895c7.105 0 13.671 4.502 16.038 11.892 33.934 106.24-44.851 215.244-156.439 216.172zm171.812-114.078c8.164-27.519 9.379-56.094 4.819-82.531 20.786 2.445 36.552 20.137 36.552 41.12 0 22.821-18.556 41.388-41.371 41.411zm-346.485.001c-22.835 0-41.413-18.577-41.413-41.412 0-21.114 15.913-38.706 36.553-41.12-4.657 26.988-3.214 55.455 4.91 82.532-.016 0-.033 0-.05 0zm15.856 143.245c-6.357 10.009-20.355 11.568-28.756 3.17l-25.952-25.952c-3.999-3.999-5.938-9.517-5.318-15.139 1.477-13.401 16.292-20.003 29.242-17.611 1.653 19.009 15.963 33.151 34.78 34.786 1.311 7.106-.08 14.58-3.996 20.746zm-11.647-45.098c-10.77-15.243-.405-40.203 20.14-47.743 9.352 13.509 20.297 25.369 31.804 35.237-9.68 21.268-39.185 30.572-51.944 12.506zm46.36 130.702c.303-7.752 1.076-15.367 2.311-22.765h158.61c4.142 0 7.5-3.358 7.5-7.5s-3.358-7.5-7.5-7.5h-155.397c2.203-8.376 5.044-16.488 8.493-24.237h217.273c3.449 7.749 6.29 15.86 8.493 24.237h-48.861c-4.142 0-7.5 3.358-7.5 7.5s3.358 7.5 7.5 7.5h52.074c1.235 7.397 2.008 15.013 2.311 22.765zm223.603-77.001h-201.9c11.704-20.026 24.987-32.202 30.845-37.002 22.542 9.588 46.741 14.419 71.685 14.232.023 0 .047-.001.07-.002 24.616-.22 47.793-5.328 68.605-14.105 5.944 4.891 19.096 17.029 30.695 36.877zm18.455-67.831c12.014-10.604 21.986-22.124 30.287-34.336 22.364 6.576 34.406 34.173 21.259 49.873-13.507 16.13-42.701 6.809-51.546-15.537zm95.699 36.446-25.952 25.952c-4 3.999-9.514 5.941-15.139 5.317-13.399-1.476-20-16.285-17.613-29.233 18.877-1.642 33.111-15.808 34.776-34.786 7.111-1.315 14.588.076 20.758 3.994 10.026 6.368 11.553 20.372 3.17 28.756z"/></g></svg>